<?xml version="1.0" standalone="no"?>
<!DOCTYPE svg PUBLIC "-//W3C//DTD SVG 20010904//EN"
 "http://www.w3.org/TR/2001/REC-SVG-20010904/DTD/svg10.dtd">
<svg version="1.0" xmlns="http://www.w3.org/2000/svg"
 width="232.000000pt" height="232.000000pt" viewBox="0 0 232.000000 232.000000"
 preserveAspectRatio="xMidYMid meet">
<metadata>
Created by potrace 1.11, written by Peter Selinger 2001-2013
</metadata>
<g transform="translate(0.000000,232.000000) scale(0.100000,-0.100000)"
fill="#000000" stroke="none">
<path d="M758 1994 c-329 -52 -585 -294 -662 -625 -15 -63 -16 -296 -2 -349 4
-14 9 -36 12 -50 11 -52 69 -176 116 -246 55 -83 160 -183 242 -233 55 -33
159 -78 199 -87 160 -35 227 -36 382 -8 59 11 184 66 257 114 64 42 209 182
208 200 -1 3 -67 51 -147 107 l-146 101 -52 -51 c-128 -128 -312 -163 -466
-88 -83 39 -112 63 -165 134 -58 78 -85 154 -90 252 -13 261 182 479 425 476
101 -1 165 -23 253 -87 l50 -35 41 39 c23 21 82 77 130 123 l88 86 -38 34
c-172 155 -413 229 -635 193z"/>
<path d="M1559 1983 c-3 -48 0 -343 4 -350 3 -4 42 -7 86 -7 l81 1 0 -437 0
-438 -85 2 -85 1 -1 -35 c0 -50 0 -281 0 -307 l1 -23 353 0 353 0 0 180 -1
180 -30 1 c-16 1 -55 2 -85 3 l-55 1 -2 437 -2 437 72 0 c40 0 79 0 87 0 14 1
16 26 16 181 l0 180 -353 0 c-194 0 -353 -3 -354 -7z"/>
</g>
</svg>
